<svg version="1.2" baseProfile="tiny" id="EdgeSVG_Diowv" x="0px" y="0px" width="127.479px" height="270px" viewBox="0 0 127.479 270" xmlns:xlink="http://www.w3.org/1999/xlink" xmlns="http://www.w3.org/2000/svg">
  <linearGradient id="SVGID_3_" gradientUnits="userSpaceOnUse" x1="63.5493" y1="238.8247" x2="63.5493" y2="184.356">
    <stop offset="0" style="stop-color:#FFFFFF;stop-opacity:0.2"/>
    <stop offset="0.8037" style="stop-color:#000000;stop-opacity:0.15"/>
  </linearGradient>
  <path fill="url(#SVGID_3_)" d="M125.227,184.356H62.628H1.871l6.603,5.98v-1.241c0,0,6.077,0,9.216,4.909v4.678l44.324,40.143&#xD;&#xA;&#x9;&#x9;l3.114-0.041l44.249-40.074v-4.705c3.14-4.909,9.217-4.909,9.217-4.909v1.268L125.227,184.356z"/>
  <linearGradient id="SVGID_4_" gradientUnits="userSpaceOnUse" x1="0.8701" y1="97.749" x2="126.2271" y2="97.749">
    <stop offset="0" style="stop-color:#000000;stop-opacity:0.05"/>
    <stop offset="0.1779" style="stop-color:#FFFFFF;stop-opacity:0.6"/>
    <stop offset="0.2309" style="stop-color:#FCFCFC;stop-opacity:0.5166"/>
    <stop offset="0.2773" style="stop-color:#F1F1F1;stop-opacity:0.4435"/>
    <stop offset="0.3213" style="stop-color:#DFDFDF;stop-opacity:0.3741"/>
    <stop offset="0.3639" style="stop-color:#C5C5C5;stop-opacity:0.3071"/>
    <stop offset="0.4054" style="stop-color:#A5A5A5;stop-opacity:0.2418"/>
    <stop offset="0.4461" style="stop-color:#7D7D7D;stop-opacity:0.1777"/>
    <stop offset="0.4862" style="stop-color:#4D4D4D;stop-opacity:0.1146"/>
    <stop offset="0.5247" style="stop-color:#171717;stop-opacity:0.0539"/>
    <stop offset="0.5399" style="stop-color:#000000;stop-opacity:0.03"/>
    <stop offset="0.6933" style="stop-color:#000000;stop-opacity:0.05"/>
    <stop offset="0.9509" style="stop-color:#0A0A0A;stop-opacity:0.4"/>
    <stop offset="0.9626" style="stop-color:#060606;stop-opacity:0.2915"/>
    <stop offset="0.9939" style="stop-color:#000000;stop-opacity:0"/>
  </linearGradient>
  <rect x="0.87" y="12.35" fill="url(#SVGID_4_)" width="125.357" height="170.798"/>
  <linearGradient id="SVGID_5_" gradientUnits="userSpaceOnUse" x1="39.813" y1="12.3457" x2="39.813" y2="1.4697">
    <stop offset="0" style="stop-color:#FFFFFF;stop-opacity:0.2"/>
    <stop offset="1" style="stop-color:#E6E7E8;stop-opacity:0.3"/>
  </linearGradient>
  <path fill="url(#SVGID_5_)" d="M21.989,12.346c0,0,2.719-10.876,14.21-10.876c8.179,0,21.438,0.004,21.438,0.004&#xD;&#xA;&#x9;&#x9;S53.71,5.768,53.71,12.346H21.989"/>
  <linearGradient id="SVGID_6_" gradientUnits="userSpaceOnUse" x1="63.5488" y1="13.8604" x2="63.5488" y2="0.8701">
    <stop offset="0" style="stop-color:#FFFFFF;stop-opacity:0"/>
    <stop offset="0.0505" style="stop-color:#FDFDFD;stop-opacity:0.1266"/>
    <stop offset="0.0726" style="stop-color:#F6F6F6;stop-opacity:0.182"/>
    <stop offset="0.0891" style="stop-color:#E9E9E9;stop-opacity:0.2236"/>
    <stop offset="0.1029" style="stop-color:#D7D7D7;stop-opacity:0.2582"/>
    <stop offset="0.115" style="stop-color:#C0C0C0;stop-opacity:0.2885"/>
    <stop offset="0.1259" style="stop-color:#A3A3A3;stop-opacity:0.3158"/>
    <stop offset="0.1359" style="stop-color:#818181;stop-opacity:0.3408"/>
    <stop offset="0.1452" style="stop-color:#595959;stop-opacity:0.3641"/>
    <stop offset="0.1536" style="stop-color:#2E2E2E;stop-opacity:0.3851"/>
    <stop offset="0.1595" style="stop-color:#0A0A0A;stop-opacity:0.4"/>
    <stop offset="0.2699" style="stop-color:#000000;stop-opacity:0.2476"/>
    <stop offset="0.2866" style="stop-color:#29292A;stop-opacity:0.2538"/>
    <stop offset="0.3646" style="stop-color:#67686B;stop-opacity:0.2824"/>
    <stop offset="0.4449" style="stop-color:#8D8F91;stop-opacity:0.3119"/>
    <stop offset="0.526" style="stop-color:#ADAFB2;stop-opacity:0.3417"/>
    <stop offset="0.608" style="stop-color:#C9CBCD;stop-opacity:0.3718"/>
    <stop offset="0.691" style="stop-color:#DFE0E2;stop-opacity:0.4023"/>
    <stop offset="0.7758" style="stop-color:#EFF0F0;stop-opacity:0.4334"/>
    <stop offset="0.8631" style="stop-color:#FAFAFA;stop-opacity:0.4655"/>
    <stop offset="0.9571" style="stop-color:#FFFFFF;stop-opacity:0.5"/>
  </linearGradient>
  <path fill="url(#SVGID_6_)" d="M0.87,13.86c0-8.636,12.303-12.99,19.613-12.99h86.13c7.31,0,19.613,4.354,19.613,12.99H0.87z"/>
  <linearGradient id="SVGID_7_" gradientUnits="userSpaceOnUse" x1="2.6919" y1="183.3433" x2="124.3267" y2="183.3433">
    <stop offset="0" style="stop-color:#0A0A0A;stop-opacity:0"/>
    <stop offset="0.5153" style="stop-color:#FFFFFF;stop-opacity:0.5"/>
    <stop offset="0.5619" style="stop-color:#F9F9F9;stop-opacity:0.4507"/>
    <stop offset="0.6249" style="stop-color:#E8E8E8;stop-opacity:0.384"/>
    <stop offset="0.6973" style="stop-color:#CBCBCB;stop-opacity:0.3074"/>
    <stop offset="0.7768" style="stop-color:#A4A4A4;stop-opacity:0.2233"/>
    <stop offset="0.8619" style="stop-color:#717171;stop-opacity:0.1332"/>
    <stop offset="0.9505" style="stop-color:#343434;stop-opacity:0.0394"/>
    <stop offset="0.9877" style="stop-color:#181818;stop-opacity:0"/>
  </linearGradient>
  <rect x="2.692" y="182.729" fill="url(#SVGID_7_)" width="121.635" height="1.229"/>
  <linearGradient id="SVGID_8_" gradientUnits="userSpaceOnUse" x1="1.0425" y1="12.6489" x2="126.2271" y2="12.6489">
    <stop offset="0" style="stop-color:#FFFFFF;stop-opacity:0.05"/>
    <stop offset="0.0642" style="stop-color:#FFFFFF;stop-opacity:0.1136"/>
    <stop offset="0.454" style="stop-color:#FFFFFF;stop-opacity:0.5"/>
    <stop offset="0.9228" style="stop-color:#FFFFFF;stop-opacity:0.1136"/>
    <stop offset="1" style="stop-color:#FFFFFF;stop-opacity:0.05"/>
  </linearGradient>
  <polygon fill="url(#SVGID_8_)" points="126.227,12.954 1.042,12.949 1.042,12.344 126.227,12.35 &#x9;"/>
  <linearGradient id="SVGID_9_" gradientUnits="userSpaceOnUse" x1="31.0215" y1="1.4702" x2="31.0215" y2="238.082">
    <stop offset="0" style="stop-color:#FFFFFF;stop-opacity:0"/>
    <stop offset="0.0875" style="stop-color:#F6F6F6;stop-opacity:0.0087"/>
    <stop offset="0.2296" style="stop-color:#DEDEDE;stop-opacity:0.023"/>
    <stop offset="0.4085" style="stop-color:#B7B7B7;stop-opacity:0.0409"/>
    <stop offset="0.6173" style="stop-color:#808080;stop-opacity:0.0617"/>
    <stop offset="0.8484" style="stop-color:#3B3B3B;stop-opacity:0.0848"/>
    <stop offset="1" style="stop-color:#0A0A0A;stop-opacity:0.1"/>
  </linearGradient>
  <path fill="url(#SVGID_9_)" d="M8.474,189.095c0,0,6.077,0,9.216,4.909v4.679c9.46,8.497,23.502,21.184,43.482,39.398&#xD;&#xA;&#x9;&#x9;c0,0-38.6-50.374-38.511-55.129c0.196-10.594,0-157.916,0-167.965S34.468,1.47,34.468,1.47s-5.488,0-16.752,0&#xD;&#xA;&#x9;&#x9;C4.21,1.47,0.87,12.35,0.87,12.35v171.401c0,0,2.353,2.003,7.604,6.684V189.095z"/>
  <linearGradient id="SVGID_10_" gradientUnits="userSpaceOnUse" x1="0.8701" y1="211.2915" x2="125.9409" y2="211.2915">
    <stop offset="0" style="stop-color:#FFFFFF;stop-opacity:0.2"/>
    <stop offset="0.5767" style="stop-color:#000000;stop-opacity:0.3"/>
    <stop offset="1" style="stop-color:#FFFFFF;stop-opacity:0.2"/>
  </linearGradient>
  <path fill="url(#SVGID_10_)" d="M125.941,183.751H63.549H0.87l7.604,6.851v-1.507c0,0,6.077,0,9.216,4.909v4.901l44.315,39.926&#xD;&#xA;&#x9;&#x9;l3.13-0.039l44.241-39.86v-4.928c3.14-4.909,9.217-4.909,9.217-4.909v1.533L125.941,183.751z"/>
  <g>
    <linearGradient id="SVGID_11_" gradientUnits="userSpaceOnUse" x1="89.689" y1="1.4746" x2="89.689" y2="1.4702">
      <stop offset="0.0123" style="stop-color:#000000;stop-opacity:0"/>
      <stop offset="0.8604" style="stop-color:#000000;stop-opacity:0.0859"/>
      <stop offset="1" style="stop-color:#000000;stop-opacity:0.1"/>
    </linearGradient>
    <path fill="url(#SVGID_11_)" d="M89.502,1.475c0.127,0,0.248,0,0.374,0C89.636,1.465,89.502,1.475,89.502,1.475z"/>
    <linearGradient id="SVGID_12_" gradientUnits="userSpaceOnUse" x1="94.4995" y1="238.7095" x2="94.4995" y2="1.4751">
      <stop offset="0.0123" style="stop-color:#000000;stop-opacity:0"/>
      <stop offset="0.8604" style="stop-color:#000000;stop-opacity:0.0859"/>
      <stop offset="1" style="stop-color:#000000;stop-opacity:0.1"/>
    </linearGradient>
    <path fill="url(#SVGID_12_)" d="M107.042,1.475c0,0-5.158,0-17.165,0c1.661,0.065,8.452,1.047,11.869,12.469v76.521v55.437v37.247&#xD;&#xA;&#x9;&#x9;&#x9;c3.066,8.417-36.853,55.562-36.853,55.562c21.541-19.708,35.539-32.78,44.485-41.264v-3.441c2.582-4.037,7.148-4.754,8.689-4.881&#xD;&#xA;&#x9;&#x9;&#x9;c4.59-4.454,6.026-5.976,6.026-5.976v-37.247V90.464V13.944C124.093,13.944,125.255,5.206,107.042,1.475z"/>
  </g>
  <g>
    <linearGradient id="SVGID_13_" gradientUnits="userSpaceOnUse" x1="89.689" y1="1.4746" x2="89.689" y2="1.4702">
      <stop offset="0" style="stop-color:#000000;stop-opacity:0.2"/>
      <stop offset="0.0393" style="stop-color:#525355;stop-opacity:0.192"/>
      <stop offset="0.0827" style="stop-color:#747678;stop-opacity:0.1833"/>
      <stop offset="0.1314" style="stop-color:#909295;stop-opacity:0.1734"/>
      <stop offset="0.1844" style="stop-color:#A9ABAE;stop-opacity:0.1627"/>
      <stop offset="0.243" style="stop-color:#C0C1C4;stop-opacity:0.1508"/>
      <stop offset="0.3091" style="stop-color:#D2D3D5;stop-opacity:0.1374"/>
      <stop offset="0.3864" style="stop-color:#E0E1E2;stop-opacity:0.1218"/>
      <stop offset="0.4819" style="stop-color:#EAEBEB;stop-opacity:0.1024"/>
      <stop offset="0.6158" style="stop-color:#EFF0F1;stop-opacity:0.0753"/>
      <stop offset="0.9877" style="stop-color:#F1F2F2;stop-opacity:0"/>
    </linearGradient>
    <path fill="url(#SVGID_13_)" d="M89.502,1.475c0.127,0,0.248,0,0.374,0C89.636,1.465,89.502,1.475,89.502,1.475z"/>
    <linearGradient id="SVGID_14_" gradientUnits="userSpaceOnUse" x1="94.4995" y1="238.7095" x2="94.4995" y2="1.4751">
      <stop offset="0" style="stop-color:#000000;stop-opacity:0.2"/>
      <stop offset="0.0393" style="stop-color:#525355;stop-opacity:0.192"/>
      <stop offset="0.0827" style="stop-color:#747678;stop-opacity:0.1833"/>
      <stop offset="0.1314" style="stop-color:#909295;stop-opacity:0.1734"/>
      <stop offset="0.1844" style="stop-color:#A9ABAE;stop-opacity:0.1627"/>
      <stop offset="0.243" style="stop-color:#C0C1C4;stop-opacity:0.1508"/>
      <stop offset="0.3091" style="stop-color:#D2D3D5;stop-opacity:0.1374"/>
      <stop offset="0.3864" style="stop-color:#E0E1E2;stop-opacity:0.1218"/>
      <stop offset="0.4819" style="stop-color:#EAEBEB;stop-opacity:0.1024"/>
      <stop offset="0.6158" style="stop-color:#EFF0F1;stop-opacity:0.0753"/>
      <stop offset="0.9877" style="stop-color:#F1F2F2;stop-opacity:0"/>
    </linearGradient>
    <path fill="url(#SVGID_14_)" d="M107.042,1.475c0,0-5.158,0-17.165,0c1.661,0.065,8.452,1.047,11.869,12.469v76.521v55.437v37.247&#xD;&#xA;&#x9;&#x9;&#x9;c0,13.833-36.853,55.562-36.853,55.562c21.476-19.494,35.503-32.578,44.485-41.126v-3.579c2.637-4.123,7.345-4.783,8.785-4.889&#xD;&#xA;&#x9;&#x9;&#x9;c4.463-4.375,5.931-5.968,5.931-5.968v-37.247V90.464V13.944C124.093,13.944,125.255,5.206,107.042,1.475z"/>
  </g>
  <linearGradient id="SVGID_15_" gradientUnits="userSpaceOnUse" x1="63.4053" y1="183.7515" x2="63.4053" y2="238.8257">
    <stop offset="0.135" style="stop-color:#0A0A0A;stop-opacity:0.4"/>
    <stop offset="0.9571" style="stop-color:#FFFFFF;stop-opacity:0.5"/>
  </linearGradient>
  <path fill="url(#SVGID_15_)" d="M125.941,183.751H0.87l7.604,6.585v-1.241c0,0,6.077,0,9.216,4.909v4.901l44.324,39.92l3.114-0.042&#xD;&#xA;&#x9;&#x9;l44.249-40.074v-4.705c3.14-4.909,9.217-4.909,9.217-4.909v1.268L125.941,183.751z"/>
  <linearGradient id="SVGID_16_" gradientUnits="userSpaceOnUse" x1="44.1392" y1="237.5562" x2="44.1392" y2="184.356">
    <stop offset="0" style="stop-color:#FFFFFF;stop-opacity:0.2"/>
    <stop offset="0.0399" style="stop-color:#FAFBFB;stop-opacity:0.194"/>
    <stop offset="0.192" style="stop-color:#EFEFF0;stop-opacity:0.1712"/>
    <stop offset="0.4058" style="stop-color:#E8E9EA;stop-opacity:0.1391"/>
    <stop offset="1" style="stop-color:#E6E7E8;stop-opacity:0.05"/>
  </linearGradient>
  <path fill="url(#SVGID_16_)" d="M23.386,184.356c0,0,4.624,12.665,38.881,53.2l2.625-0.056c0,0-13.417-48.307-13.544-53.145H23.386&#xD;&#xA;&#x9;&#x9;"/>
  <linearGradient id="SVGID_17_" gradientUnits="userSpaceOnUse" x1="58.1201" y1="238.0815" x2="58.1201" y2="184.356">
    <stop offset="0" style="stop-color:#000000;stop-opacity:0.05"/>
    <stop offset="1" style="stop-color:#000000;stop-opacity:0.05"/>
  </linearGradient>
  <polygon fill="url(#SVGID_17_)" points="51.348,184.356 63.93,238.082 64.893,184.356 &#x9;"/>
  <linearGradient id="SVGID_18_" gradientUnits="userSpaceOnUse" x1="17.6904" y1="228.5083" x2="8.4741" y2="228.5083">
    <stop offset="0" style="stop-color:#000000;stop-opacity:0"/>
    <stop offset="0.0552" style="stop-color:#0A0A0A;stop-opacity:0.4"/>
    <stop offset="0.5767" style="stop-color:#000000;stop-opacity:0.3"/>
    <stop offset="0.5786" style="stop-color:#090909;stop-opacity:0.3022"/>
    <stop offset="0.589" style="stop-color:#373737;stop-opacity:0.3143"/>
    <stop offset="0.6007" style="stop-color:#626262;stop-opacity:0.3279"/>
    <stop offset="0.6132" style="stop-color:#888888;stop-opacity:0.3426"/>
    <stop offset="0.6269" style="stop-color:#A8A8A8;stop-opacity:0.3585"/>
    <stop offset="0.6421" style="stop-color:#C4C4C4;stop-opacity:0.3761"/>
    <stop offset="0.6591" style="stop-color:#DADADA;stop-opacity:0.396"/>
    <stop offset="0.6791" style="stop-color:#EBEBEB;stop-opacity:0.4192"/>
    <stop offset="0.7037" style="stop-color:#F6F6F6;stop-opacity:0.4479"/>
    <stop offset="0.7383" style="stop-color:#FDFDFD;stop-opacity:0.4882"/>
    <stop offset="0.8344" style="stop-color:#FFFFFF;stop-opacity:0.6"/>
    <stop offset="0.9755" style="stop-color:#000000;stop-opacity:0.05"/>
  </linearGradient>
  <path fill-rule="evenodd" fill="url(#SVGID_18_)" d="M17.69,267.921H8.474v-78.826c4.565,0,8.169,2.813,9.216,4.909V267.921z"/>
  <linearGradient id="SVGID_19_" gradientUnits="userSpaceOnUse" x1="67.6045" y1="252.2456" x2="59.6221" y2="252.2456">
    <stop offset="0" style="stop-color:#000000;stop-opacity:0"/>
    <stop offset="0.0552" style="stop-color:#0A0A0A;stop-opacity:0.4"/>
    <stop offset="0.5767" style="stop-color:#000000;stop-opacity:0.3"/>
    <stop offset="0.5786" style="stop-color:#090909;stop-opacity:0.3022"/>
    <stop offset="0.589" style="stop-color:#373737;stop-opacity:0.3143"/>
    <stop offset="0.6007" style="stop-color:#626262;stop-opacity:0.3279"/>
    <stop offset="0.6132" style="stop-color:#888888;stop-opacity:0.3426"/>
    <stop offset="0.6269" style="stop-color:#A8A8A8;stop-opacity:0.3585"/>
    <stop offset="0.6421" style="stop-color:#C4C4C4;stop-opacity:0.3761"/>
    <stop offset="0.6591" style="stop-color:#DADADA;stop-opacity:0.396"/>
    <stop offset="0.6791" style="stop-color:#EBEBEB;stop-opacity:0.4192"/>
    <stop offset="0.7037" style="stop-color:#F6F6F6;stop-opacity:0.4479"/>
    <stop offset="0.7383" style="stop-color:#FDFDFD;stop-opacity:0.4882"/>
    <stop offset="0.8344" style="stop-color:#FFFFFF;stop-opacity:0.6"/>
    <stop offset="0.9755" style="stop-color:#000000;stop-opacity:0.05"/>
  </linearGradient>
  <polygon fill-rule="evenodd" fill="url(#SVGID_19_)" points="67.604,267.921 59.622,267.921 59.622,236.683 62.015,238.825 &#xD;&#xA;&#x9;&#x9;65.128,238.825 67.604,236.569 &#x9;"/>
  <linearGradient id="SVGID_20_" gradientUnits="userSpaceOnUse" x1="118.5972" y1="228.4302" x2="109.3774" y2="228.4302">
    <stop offset="0" style="stop-color:#000000;stop-opacity:0"/>
    <stop offset="0.0552" style="stop-color:#0A0A0A;stop-opacity:0.4"/>
    <stop offset="0.5767" style="stop-color:#000000;stop-opacity:0.3"/>
    <stop offset="0.5786" style="stop-color:#090909;stop-opacity:0.3022"/>
    <stop offset="0.589" style="stop-color:#373737;stop-opacity:0.3143"/>
    <stop offset="0.6007" style="stop-color:#626262;stop-opacity:0.3279"/>
    <stop offset="0.6132" style="stop-color:#888888;stop-opacity:0.3426"/>
    <stop offset="0.6269" style="stop-color:#A8A8A8;stop-opacity:0.3585"/>
    <stop offset="0.6421" style="stop-color:#C4C4C4;stop-opacity:0.3761"/>
    <stop offset="0.6591" style="stop-color:#DADADA;stop-opacity:0.396"/>
    <stop offset="0.6791" style="stop-color:#EBEBEB;stop-opacity:0.4192"/>
    <stop offset="0.7037" style="stop-color:#F6F6F6;stop-opacity:0.4479"/>
    <stop offset="0.7383" style="stop-color:#FDFDFD;stop-opacity:0.4882"/>
    <stop offset="0.8344" style="stop-color:#FFFFFF;stop-opacity:0.6"/>
    <stop offset="0.9755" style="stop-color:#000000;stop-opacity:0.05"/>
  </linearGradient>
  <path fill-rule="evenodd" fill="url(#SVGID_20_)" d="M118.597,267.921h-9.22v-73.917c0,0,3.447-5.065,9.22-5.065V267.921z"/>
  <linearGradient id="SVGID_21_" gradientUnits="userSpaceOnUse" x1="13.082" y1="202.9048" x2="13.082" y2="189.0767">
    <stop offset="0" style="stop-color:#666666;stop-opacity:0"/>
    <stop offset="0.2484" style="stop-color:#505050;stop-opacity:0.1528"/>
    <stop offset="0.7615" style="stop-color:#191919;stop-opacity:0.4684"/>
    <stop offset="0.9755" style="stop-color:#000000;stop-opacity:0.6"/>
  </linearGradient>
  <path fill-rule="evenodd" fill="url(#SVGID_21_)" d="M17.69,202.905H8.474v-13.81c0,0,5.292-0.581,9.216,4.834V202.905z"/>
  <linearGradient id="SVGID_22_" gradientUnits="userSpaceOnUse" x1="113.9858" y1="202.9048" x2="113.9858" y2="189.0942">
    <stop offset="0" style="stop-color:#666666;stop-opacity:0"/>
    <stop offset="0.2484" style="stop-color:#505050;stop-opacity:0.1528"/>
    <stop offset="0.7615" style="stop-color:#191919;stop-opacity:0.4684"/>
    <stop offset="0.9755" style="stop-color:#000000;stop-opacity:0.6"/>
  </linearGradient>
  <path fill-rule="evenodd" fill="url(#SVGID_22_)" d="M118.594,202.905h-9.217v-8.976c0,0,3.086-4.923,9.217-4.834V202.905z"/>
  <linearGradient id="SVGID_23_" gradientUnits="userSpaceOnUse" x1="13.2729" y1="267.9214" x2="13.2729" y2="246.2397">
    <stop offset="0.1166" style="stop-color:#0A0A0A;stop-opacity:0.1"/>
    <stop offset="0.8896" style="stop-color:#F1F2F2;stop-opacity:0"/>
  </linearGradient>
  <rect x="8.855" y="246.24" fill-rule="evenodd" fill="url(#SVGID_23_)" width="8.835" height="21.682"/>
  <linearGradient id="SVGID_24_" gradientUnits="userSpaceOnUse" x1="114.1499" y1="267.9214" x2="114.1499" y2="246.2397">
    <stop offset="0.1166" style="stop-color:#0A0A0A;stop-opacity:0.1"/>
    <stop offset="0.8896" style="stop-color:#F1F2F2;stop-opacity:0"/>
  </linearGradient>
  <rect x="109.705" y="246.24" fill-rule="evenodd" fill="url(#SVGID_24_)" width="8.89" height="21.682"/>
  <path fill="#414042" d="M17.618,194.053c-0.025,0-0.049-0.013-0.064-0.036c-3.187-5.068-8.954-4.774-9.01-4.768&#xD;&#xA;&#x9;&#x9;c-0.048,0-0.078-0.029-0.08-0.071s0.029-0.077,0.071-0.08c0.059,0.002,5.913-0.307,9.147,4.839&#xD;&#xA;&#x9;&#x9;c0.022,0.035,0.012,0.082-0.024,0.104C17.646,194.049,17.632,194.053,17.618,194.053z"/>
  <path fill="#414042" d="M109.417,194.039c-0.015,0-0.029-0.005-0.043-0.014c-0.033-0.024-0.042-0.071-0.018-0.105&#xD;&#xA;&#x9;&#x9;c3.624-5.147,9.129-4.805,9.182-4.806c0.043,0.003,0.073,0.04,0.071,0.081c-0.004,0.042-0.039,0.074-0.081,0.07&#xD;&#xA;&#x9;&#x9;c-0.056-0.007-5.478-0.332-9.048,4.741C109.465,194.028,109.442,194.039,109.417,194.039z"/>
  <linearGradient id="SVGID_25_" gradientUnits="userSpaceOnUse" x1="63.6133" y1="236.5688" x2="63.6133" y2="259.8618">
    <stop offset="0.1166" style="stop-color:#0A0A0A;stop-opacity:0.3"/>
    <stop offset="0.8896" style="stop-color:#F1F2F2;stop-opacity:0"/>
  </linearGradient>
  <polygon fill-rule="evenodd" fill="url(#SVGID_25_)" points="67.604,259.862 59.622,259.862 59.622,236.683 62.015,238.825 &#xD;&#xA;&#x9;&#x9;65.128,238.784 67.604,236.569 &#x9;"/>
  <linearGradient id="SVGID_26_" gradientUnits="userSpaceOnUse" x1="13.564" y1="269.1304" x2="13.564" y2="267.9214">
    <stop offset="0.1166" style="stop-color:#0A0A0A;stop-opacity:0.6"/>
    <stop offset="0.8896" style="stop-color:#000000;stop-opacity:0.3"/>
    <stop offset="0.8904" style="stop-color:#090909;stop-opacity:0.3022"/>
    <stop offset="0.8948" style="stop-color:#373737;stop-opacity:0.3143"/>
    <stop offset="0.8999" style="stop-color:#626262;stop-opacity:0.3279"/>
    <stop offset="0.9052" style="stop-color:#888888;stop-opacity:0.3426"/>
    <stop offset="0.9111" style="stop-color:#A8A8A8;stop-opacity:0.3585"/>
    <stop offset="0.9176" style="stop-color:#C4C4C4;stop-opacity:0.3761"/>
    <stop offset="0.9249" style="stop-color:#DADADA;stop-opacity:0.396"/>
    <stop offset="0.9335" style="stop-color:#EBEBEB;stop-opacity:0.4192"/>
    <stop offset="0.944" style="stop-color:#F6F6F6;stop-opacity:0.4479"/>
    <stop offset="0.9588" style="stop-color:#FDFDFD;stop-opacity:0.4882"/>
    <stop offset="1" style="stop-color:#FFFFFF;stop-opacity:0.6"/>
  </linearGradient>
  <rect x="4.538" y="267.921" fill-rule="evenodd" fill="url(#SVGID_26_)" width="18.052" height="1.209"/>
  <linearGradient id="SVGID_27_" gradientUnits="userSpaceOnUse" x1="63.7129" y1="269.1304" x2="63.7129" y2="267.9214">
    <stop offset="0.1166" style="stop-color:#0A0A0A;stop-opacity:0.6"/>
    <stop offset="0.8896" style="stop-color:#000000;stop-opacity:0.3"/>
    <stop offset="0.8904" style="stop-color:#090909;stop-opacity:0.3022"/>
    <stop offset="0.8948" style="stop-color:#373737;stop-opacity:0.3143"/>
    <stop offset="0.8999" style="stop-color:#626262;stop-opacity:0.3279"/>
    <stop offset="0.9052" style="stop-color:#888888;stop-opacity:0.3426"/>
    <stop offset="0.9111" style="stop-color:#A8A8A8;stop-opacity:0.3585"/>
    <stop offset="0.9176" style="stop-color:#C4C4C4;stop-opacity:0.3761"/>
    <stop offset="0.9249" style="stop-color:#DADADA;stop-opacity:0.396"/>
    <stop offset="0.9335" style="stop-color:#EBEBEB;stop-opacity:0.4192"/>
    <stop offset="0.944" style="stop-color:#F6F6F6;stop-opacity:0.4479"/>
    <stop offset="0.9588" style="stop-color:#FDFDFD;stop-opacity:0.4882"/>
    <stop offset="1" style="stop-color:#FFFFFF;stop-opacity:0.6"/>
  </linearGradient>
  <rect x="55.896" y="267.921" fill-rule="evenodd" fill="url(#SVGID_27_)" width="15.634" height="1.209"/>
  <linearGradient id="SVGID_28_" gradientUnits="userSpaceOnUse" x1="114.4683" y1="269.1304" x2="114.4683" y2="267.9214">
    <stop offset="0.1166" style="stop-color:#0A0A0A;stop-opacity:0.6"/>
    <stop offset="0.8896" style="stop-color:#000000;stop-opacity:0.3"/>
    <stop offset="0.8904" style="stop-color:#090909;stop-opacity:0.3022"/>
    <stop offset="0.8948" style="stop-color:#373737;stop-opacity:0.3143"/>
    <stop offset="0.8999" style="stop-color:#626262;stop-opacity:0.3279"/>
    <stop offset="0.9052" style="stop-color:#888888;stop-opacity:0.3426"/>
    <stop offset="0.9111" style="stop-color:#A8A8A8;stop-opacity:0.3585"/>
    <stop offset="0.9176" style="stop-color:#C4C4C4;stop-opacity:0.3761"/>
    <stop offset="0.9249" style="stop-color:#DADADA;stop-opacity:0.396"/>
    <stop offset="0.9335" style="stop-color:#EBEBEB;stop-opacity:0.4192"/>
    <stop offset="0.944" style="stop-color:#F6F6F6;stop-opacity:0.4479"/>
    <stop offset="0.9588" style="stop-color:#FDFDFD;stop-opacity:0.4882"/>
    <stop offset="1" style="stop-color:#FFFFFF;stop-opacity:0.6"/>
  </linearGradient>
  <rect x="105.442" y="267.921" fill-rule="evenodd" fill="url(#SVGID_28_)" width="18.053" height="1.209"/>
</svg>