<svg version="1.2" baseProfile="tiny" viewBox="0 0 127.479 270.0" xmlns:xlink="http://www.w3.org/1999/xlink" xmlns="http://www.w3.org/2000/svg">
<path style="fill:#ffffff;" d="M126.6096,14.1642L126.6096,183.1491L65.129,238.7853L62.3959,238.8258L1.2506,183.7782L1.2506,14.1642C1.2506,5.3271,13.5536,0.8694,20.8645,0.8694L106.9944,0.8694C114.304,0.8694,126.6096,5.3271,126.6096,14.1642M17.6903,198.5823L8.4901,190.2906L8.4927,267.921L17.689,267.921L17.689,198.5823M67.6034,236.5416L65.1277,238.7826L62.3946,238.8231L59.6219,236.2986L59.6219,267.921L67.6034,267.921L67.6034,236.5416M109.4343,267.921L118.5975,267.921L118.5937,190.4013C118.5937,190.4013,112.2236,196.1658,109.4343,198.6903L109.4343,267.921M22.588,267.921L4.537,267.921L4.537,267.921L4.5383,269.1306L22.5906,269.1306L22.5906,267.921L22.588,267.921M105.4417,269.1306L123.4953,269.1306L123.4953,267.921L105.4417,267.921L105.4417,269.1306M55.8957,269.1306L71.5297,269.1306L71.5297,269.1306L71.5297,267.921L55.8957,267.921L55.8957,269.1306L55.8957,269.1306"/>
</svg>